<mxfile host="app.diagrams.net" agent="Mozilla/5.0 (Macintosh; Intel Mac OS X 10_15_7) AppleWebKit/537.36 (KHTML, like Gecko) Chrome/138.0.0.0 Safari/537.36" version="28.0.7">
  <diagram name="Page-1" id="edf60f1a-56cd-e834-aa8a-f176f3a09ee4">
    <mxGraphModel dx="2118" dy="1449" grid="1" gridSize="10" guides="1" tooltips="1" connect="1" arrows="1" fold="1" page="1" pageScale="1" pageWidth="1100" pageHeight="850" background="none" math="0" shadow="0">
      <root>
        <mxCell id="0" />
        <mxCell id="1" parent="0" />
        <mxCell id="dlKfZmpZwxfihRRVxZ_t-53" value="" style="edgeStyle=orthogonalEdgeStyle;rounded=0;orthogonalLoop=1;jettySize=auto;html=1;fontFamily=Helvetica;fontSize=12;fontColor=default;" parent="1" source="60e70716793133e9-4" target="dlKfZmpZwxfihRRVxZ_t-52" edge="1">
          <mxGeometry relative="1" as="geometry">
            <Array as="points">
              <mxPoint x="470" y="-200" />
              <mxPoint x="60" y="-200" />
            </Array>
          </mxGeometry>
        </mxCell>
        <mxCell id="dlKfZmpZwxfihRRVxZ_t-62" style="edgeStyle=orthogonalEdgeStyle;rounded=0;orthogonalLoop=1;jettySize=auto;html=1;fontFamily=Helvetica;fontSize=12;fontColor=default;" parent="1" source="60e70716793133e9-4" target="dlKfZmpZwxfihRRVxZ_t-45" edge="1">
          <mxGeometry relative="1" as="geometry">
            <Array as="points">
              <mxPoint x="470" y="-200" />
              <mxPoint x="300" y="-200" />
            </Array>
          </mxGeometry>
        </mxCell>
        <mxCell id="dlKfZmpZwxfihRRVxZ_t-63" style="edgeStyle=orthogonalEdgeStyle;rounded=0;orthogonalLoop=1;jettySize=auto;html=1;fontFamily=Helvetica;fontSize=12;fontColor=default;" parent="1" source="60e70716793133e9-4" target="dlKfZmpZwxfihRRVxZ_t-47" edge="1">
          <mxGeometry relative="1" as="geometry">
            <Array as="points">
              <mxPoint x="470" y="-200" />
              <mxPoint x="620" y="-200" />
            </Array>
          </mxGeometry>
        </mxCell>
        <mxCell id="dlKfZmpZwxfihRRVxZ_t-64" style="edgeStyle=orthogonalEdgeStyle;rounded=0;orthogonalLoop=1;jettySize=auto;html=1;fontFamily=Helvetica;fontSize=12;fontColor=default;" parent="1" source="60e70716793133e9-4" target="dlKfZmpZwxfihRRVxZ_t-43" edge="1">
          <mxGeometry relative="1" as="geometry">
            <Array as="points">
              <mxPoint x="470" y="-200" />
              <mxPoint x="890" y="-200" />
            </Array>
          </mxGeometry>
        </mxCell>
        <mxCell id="60e70716793133e9-4" value="&lt;font style=&quot;font-size: 16px;&quot;&gt;user input&lt;/font&gt;" style="rounded=0;whiteSpace=wrap;html=1;shadow=1;labelBackgroundColor=none;strokeWidth=1;fontFamily=Verdana;fontSize=8;align=center;" parent="1" vertex="1">
          <mxGeometry x="410" y="-300" width="120" height="60" as="geometry" />
        </mxCell>
        <mxCell id="dlKfZmpZwxfihRRVxZ_t-14" value="" style="edgeStyle=orthogonalEdgeStyle;rounded=0;orthogonalLoop=1;jettySize=auto;html=1;" parent="1" source="dlKfZmpZwxfihRRVxZ_t-5" target="dlKfZmpZwxfihRRVxZ_t-13" edge="1">
          <mxGeometry relative="1" as="geometry">
            <Array as="points">
              <mxPoint x="180" y="200" />
            </Array>
          </mxGeometry>
        </mxCell>
        <mxCell id="dlKfZmpZwxfihRRVxZ_t-16" value="" style="edgeStyle=orthogonalEdgeStyle;rounded=0;orthogonalLoop=1;jettySize=auto;html=1;" parent="1" source="dlKfZmpZwxfihRRVxZ_t-5" target="dlKfZmpZwxfihRRVxZ_t-15" edge="1">
          <mxGeometry relative="1" as="geometry" />
        </mxCell>
        <mxCell id="dlKfZmpZwxfihRRVxZ_t-20" style="edgeStyle=orthogonalEdgeStyle;rounded=0;orthogonalLoop=1;jettySize=auto;html=1;entryX=0.5;entryY=0;entryDx=0;entryDy=0;" parent="1" source="dlKfZmpZwxfihRRVxZ_t-5" target="dlKfZmpZwxfihRRVxZ_t-17" edge="1">
          <mxGeometry relative="1" as="geometry">
            <Array as="points">
              <mxPoint x="470" y="270" />
              <mxPoint x="600" y="270" />
            </Array>
          </mxGeometry>
        </mxCell>
        <mxCell id="dlKfZmpZwxfihRRVxZ_t-23" style="edgeStyle=orthogonalEdgeStyle;rounded=0;orthogonalLoop=1;jettySize=auto;html=1;" parent="1" source="dlKfZmpZwxfihRRVxZ_t-5" target="dlKfZmpZwxfihRRVxZ_t-21" edge="1">
          <mxGeometry relative="1" as="geometry" />
        </mxCell>
        <mxCell id="dlKfZmpZwxfihRRVxZ_t-34" value="" style="edgeStyle=orthogonalEdgeStyle;rounded=0;orthogonalLoop=1;jettySize=auto;html=1;fontFamily=Helvetica;fontSize=12;fontColor=default;" parent="1" source="dlKfZmpZwxfihRRVxZ_t-5" target="dlKfZmpZwxfihRRVxZ_t-33" edge="1">
          <mxGeometry relative="1" as="geometry" />
        </mxCell>
        <mxCell id="dlKfZmpZwxfihRRVxZ_t-5" value="意图识别结果&lt;div&gt;check intent result&lt;/div&gt;" style="whiteSpace=wrap;html=1;fontSize=11;fontFamily=Verdana;rounded=0;shadow=1;labelBackgroundColor=none;strokeWidth=1;" parent="1" vertex="1">
          <mxGeometry x="410" y="170" width="120" height="60" as="geometry" />
        </mxCell>
        <mxCell id="dlKfZmpZwxfihRRVxZ_t-27" value="" style="edgeStyle=orthogonalEdgeStyle;rounded=0;orthogonalLoop=1;jettySize=auto;html=1;" parent="1" source="dlKfZmpZwxfihRRVxZ_t-13" target="dlKfZmpZwxfihRRVxZ_t-26" edge="1">
          <mxGeometry relative="1" as="geometry" />
        </mxCell>
        <mxCell id="dlKfZmpZwxfihRRVxZ_t-13" value="&lt;div data-docx-has-block-data=&quot;false&quot; data-lark-html-role=&quot;root&quot; data-page-id=&quot;GxkmddC7got8qhxIi03c8pOvnyg&quot;&gt;&lt;div class=&quot;old-record-id-F6Fdd45Fkod5LExiYp1c6hZynNe&quot;&gt;根据热点获取素材get_material_by_topic&lt;/div&gt;&lt;/div&gt;&lt;span class=&quot;lark-record-clipboard&quot; data-lark-record-format=&quot;docx/text&quot; data-lark-record-data=&quot;{&amp;quot;rootId&amp;quot;:&amp;quot;GxkmddC7got8qhxIi03c8pOvnyg&amp;quot;,&amp;quot;text&amp;quot;:{&amp;quot;initialAttributedTexts&amp;quot;:{&amp;quot;text&amp;quot;:{&amp;quot;0&amp;quot;:&amp;quot;get_material_by_topic&amp;quot;},&amp;quot;attribs&amp;quot;:{&amp;quot;0&amp;quot;:&amp;quot;*0+l&amp;quot;}},&amp;quot;apool&amp;quot;:{&amp;quot;numToAttrib&amp;quot;:{&amp;quot;0&amp;quot;:[&amp;quot;author&amp;quot;,&amp;quot;7475538696675049474&amp;quot;]},&amp;quot;nextNum&amp;quot;:1}},&amp;quot;type&amp;quot;:&amp;quot;text&amp;quot;,&amp;quot;referenceRecordMap&amp;quot;:{},&amp;quot;extra&amp;quot;:{&amp;quot;channel&amp;quot;:&amp;quot;saas&amp;quot;,&amp;quot;isEqualBlockSelection&amp;quot;:false,&amp;quot;pasteRandomId&amp;quot;:&amp;quot;d62d672d-a99e-4dd7-bb9b-1928e0aea73a&amp;quot;,&amp;quot;mention_page_title&amp;quot;:{},&amp;quot;external_mention_url&amp;quot;:{}},&amp;quot;isKeepQuoteContainer&amp;quot;:false,&amp;quot;isFromCode&amp;quot;:false,&amp;quot;selection&amp;quot;:[{&amp;quot;id&amp;quot;:20,&amp;quot;type&amp;quot;:&amp;quot;text&amp;quot;,&amp;quot;selection&amp;quot;:{&amp;quot;start&amp;quot;:6,&amp;quot;end&amp;quot;:27},&amp;quot;recordId&amp;quot;:&amp;quot;F6Fdd45Fkod5LExiYp1c6hZynNe&amp;quot;}],&amp;quot;payloadMap&amp;quot;:{},&amp;quot;isCut&amp;quot;:false}&quot;&gt;&lt;/span&gt;" style="whiteSpace=wrap;html=1;fontSize=8;fontFamily=Verdana;rounded=0;shadow=1;labelBackgroundColor=none;strokeWidth=1;" parent="1" vertex="1">
          <mxGeometry x="120" y="310" width="120" height="60" as="geometry" />
        </mxCell>
        <mxCell id="dlKfZmpZwxfihRRVxZ_t-114" value="" style="edgeStyle=orthogonalEdgeStyle;rounded=0;orthogonalLoop=1;jettySize=auto;html=1;fontFamily=Helvetica;fontSize=12;fontColor=default;" parent="1" source="dlKfZmpZwxfihRRVxZ_t-15" target="dlKfZmpZwxfihRRVxZ_t-113" edge="1">
          <mxGeometry relative="1" as="geometry" />
        </mxCell>
        <mxCell id="dlKfZmpZwxfihRRVxZ_t-15" value="答案&lt;div&gt;answer&lt;/div&gt;" style="whiteSpace=wrap;html=1;fontSize=8;fontFamily=Verdana;rounded=0;shadow=1;labelBackgroundColor=none;strokeWidth=1;" parent="1" vertex="1">
          <mxGeometry x="300" y="310" width="120" height="60" as="geometry" />
        </mxCell>
        <mxCell id="dlKfZmpZwxfihRRVxZ_t-97" style="edgeStyle=orthogonalEdgeStyle;rounded=0;orthogonalLoop=1;jettySize=auto;html=1;entryX=0.5;entryY=0;entryDx=0;entryDy=0;fontFamily=Helvetica;fontSize=12;fontColor=default;" parent="1" source="dlKfZmpZwxfihRRVxZ_t-17" target="dlKfZmpZwxfihRRVxZ_t-91" edge="1">
          <mxGeometry relative="1" as="geometry" />
        </mxCell>
        <mxCell id="dlKfZmpZwxfihRRVxZ_t-100" value="" style="edgeStyle=orthogonalEdgeStyle;rounded=0;orthogonalLoop=1;jettySize=auto;html=1;fontFamily=Helvetica;fontSize=12;fontColor=default;" parent="1" source="dlKfZmpZwxfihRRVxZ_t-17" target="dlKfZmpZwxfihRRVxZ_t-99" edge="1">
          <mxGeometry relative="1" as="geometry">
            <Array as="points">
              <mxPoint x="600" y="430" />
              <mxPoint x="600" y="430" />
            </Array>
          </mxGeometry>
        </mxCell>
        <mxCell id="dlKfZmpZwxfihRRVxZ_t-17" value="问题&lt;div&gt;question&lt;/div&gt;" style="whiteSpace=wrap;html=1;fontSize=8;fontFamily=Verdana;rounded=0;shadow=1;labelBackgroundColor=none;strokeWidth=1;" parent="1" vertex="1">
          <mxGeometry x="540" y="310" width="120" height="60" as="geometry" />
        </mxCell>
        <mxCell id="dlKfZmpZwxfihRRVxZ_t-21" value="闲聊&lt;div&gt;unknown&lt;/div&gt;" style="whiteSpace=wrap;html=1;fontSize=8;fontFamily=Verdana;rounded=0;shadow=1;labelBackgroundColor=none;strokeWidth=1;" parent="1" vertex="1">
          <mxGeometry x="-70" y="310" width="120" height="60" as="geometry" />
        </mxCell>
        <mxCell id="dlKfZmpZwxfihRRVxZ_t-26" value="返回素材显示" style="whiteSpace=wrap;html=1;fontSize=8;fontFamily=Verdana;rounded=0;shadow=1;labelBackgroundColor=none;strokeWidth=1;" parent="1" vertex="1">
          <mxGeometry x="120" y="450" width="120" height="60" as="geometry" />
        </mxCell>
        <mxCell id="dlKfZmpZwxfihRRVxZ_t-31" value="" style="edgeStyle=orthogonalEdgeStyle;rounded=0;orthogonalLoop=1;jettySize=auto;html=1;" parent="1" target="60e70716793133e9-4" edge="1">
          <mxGeometry relative="1" as="geometry">
            <mxPoint x="470" y="-340" as="sourcePoint" />
          </mxGeometry>
        </mxCell>
        <mxCell id="dlKfZmpZwxfihRRVxZ_t-80" value="" style="edgeStyle=orthogonalEdgeStyle;rounded=0;orthogonalLoop=1;jettySize=auto;html=1;fontFamily=Helvetica;fontSize=12;fontColor=default;" parent="1" source="dlKfZmpZwxfihRRVxZ_t-33" target="dlKfZmpZwxfihRRVxZ_t-79" edge="1">
          <mxGeometry relative="1" as="geometry" />
        </mxCell>
        <mxCell id="dlKfZmpZwxfihRRVxZ_t-82" value="" style="edgeStyle=orthogonalEdgeStyle;rounded=0;orthogonalLoop=1;jettySize=auto;html=1;fontFamily=Helvetica;fontSize=12;fontColor=default;" parent="1" source="dlKfZmpZwxfihRRVxZ_t-33" target="dlKfZmpZwxfihRRVxZ_t-81" edge="1">
          <mxGeometry relative="1" as="geometry" />
        </mxCell>
        <mxCell id="dlKfZmpZwxfihRRVxZ_t-33" value="&lt;div data-docx-has-block-data=&quot;false&quot; data-lark-html-role=&quot;root&quot; data-page-id=&quot;GxkmddC7got8qhxIi03c8pOvnyg&quot;&gt;&lt;div class=&quot;old-record-id-SmXvdktBBoEjNCxJunZcn5rOnre&quot;&gt;根据热点生成真题&lt;/div&gt;&lt;div class=&quot;old-record-id-SmXvdktBBoEjNCxJunZcn5rOnre&quot;&gt;&lt;div data-docx-has-block-data=&quot;false&quot; data-lark-html-role=&quot;root&quot; data-page-id=&quot;ZrZfdG4iUosLCQxJwqncUnoCnMg&quot;&gt;&lt;div class=&quot;old-record-id-UiepdsdcZon00Xx7X0AcUdsOnOh&quot;&gt;topic_realques&lt;/div&gt;&lt;/div&gt;&lt;span class=&quot;lark-record-clipboard&quot; data-lark-record-format=&quot;docx/text&quot; data-lark-record-data=&quot;{&amp;quot;rootId&amp;quot;:&amp;quot;ZrZfdG4iUosLCQxJwqncUnoCnMg&amp;quot;,&amp;quot;text&amp;quot;:{&amp;quot;initialAttributedTexts&amp;quot;:{&amp;quot;text&amp;quot;:{&amp;quot;0&amp;quot;:&amp;quot;topic_realques&amp;quot;},&amp;quot;attribs&amp;quot;:{&amp;quot;0&amp;quot;:&amp;quot;*0+e&amp;quot;}},&amp;quot;apool&amp;quot;:{&amp;quot;numToAttrib&amp;quot;:{&amp;quot;0&amp;quot;:[&amp;quot;author&amp;quot;,&amp;quot;7475538696675049474&amp;quot;]},&amp;quot;nextNum&amp;quot;:1}},&amp;quot;type&amp;quot;:&amp;quot;text&amp;quot;,&amp;quot;referenceRecordMap&amp;quot;:{},&amp;quot;extra&amp;quot;:{&amp;quot;channel&amp;quot;:&amp;quot;saas&amp;quot;,&amp;quot;isEqualBlockSelection&amp;quot;:false,&amp;quot;pasteRandomId&amp;quot;:&amp;quot;ed86124d-68c5-41bc-9bfb-043d629b394f&amp;quot;,&amp;quot;mention_page_title&amp;quot;:{},&amp;quot;external_mention_url&amp;quot;:{}},&amp;quot;isKeepQuoteContainer&amp;quot;:false,&amp;quot;isFromCode&amp;quot;:false,&amp;quot;selection&amp;quot;:[{&amp;quot;id&amp;quot;:374,&amp;quot;type&amp;quot;:&amp;quot;text&amp;quot;,&amp;quot;selection&amp;quot;:{&amp;quot;start&amp;quot;:0,&amp;quot;end&amp;quot;:14},&amp;quot;recordId&amp;quot;:&amp;quot;UiepdsdcZon00Xx7X0AcUdsOnOh&amp;quot;}],&amp;quot;payloadMap&amp;quot;:{},&amp;quot;isCut&amp;quot;:false}&quot;&gt;&lt;/span&gt;&lt;/div&gt;&lt;/div&gt;&lt;span class=&quot;lark-record-clipboard&quot; data-lark-record-format=&quot;docx/text&quot; data-lark-record-data=&quot;{&amp;quot;rootId&amp;quot;:&amp;quot;GxkmddC7got8qhxIi03c8pOvnyg&amp;quot;,&amp;quot;text&amp;quot;:{&amp;quot;initialAttributedTexts&amp;quot;:{&amp;quot;text&amp;quot;:{&amp;quot;0&amp;quot;:&amp;quot;gen_ques_by_topic&amp;quot;},&amp;quot;attribs&amp;quot;:{&amp;quot;0&amp;quot;:&amp;quot;*0+h&amp;quot;}},&amp;quot;apool&amp;quot;:{&amp;quot;numToAttrib&amp;quot;:{&amp;quot;0&amp;quot;:[&amp;quot;author&amp;quot;,&amp;quot;7475538696675049474&amp;quot;]},&amp;quot;nextNum&amp;quot;:1}},&amp;quot;type&amp;quot;:&amp;quot;text&amp;quot;,&amp;quot;referenceRecordMap&amp;quot;:{},&amp;quot;extra&amp;quot;:{&amp;quot;channel&amp;quot;:&amp;quot;saas&amp;quot;,&amp;quot;isEqualBlockSelection&amp;quot;:false,&amp;quot;pasteRandomId&amp;quot;:&amp;quot;893605dd-fdcc-4884-b440-726c8d5e3915&amp;quot;,&amp;quot;mention_page_title&amp;quot;:{},&amp;quot;external_mention_url&amp;quot;:{}},&amp;quot;isKeepQuoteContainer&amp;quot;:false,&amp;quot;isFromCode&amp;quot;:false,&amp;quot;selection&amp;quot;:[{&amp;quot;id&amp;quot;:17,&amp;quot;type&amp;quot;:&amp;quot;text&amp;quot;,&amp;quot;selection&amp;quot;:{&amp;quot;start&amp;quot;:6,&amp;quot;end&amp;quot;:23},&amp;quot;recordId&amp;quot;:&amp;quot;SmXvdktBBoEjNCxJunZcn5rOnre&amp;quot;}],&amp;quot;payloadMap&amp;quot;:{},&amp;quot;isCut&amp;quot;:false}&quot;&gt;&lt;/span&gt;" style="whiteSpace=wrap;html=1;fontSize=8;fontFamily=Verdana;rounded=0;shadow=1;labelBackgroundColor=none;strokeWidth=1;" parent="1" vertex="1">
          <mxGeometry x="830" y="310" width="120" height="60" as="geometry" />
        </mxCell>
        <mxCell id="dlKfZmpZwxfihRRVxZ_t-73" style="edgeStyle=orthogonalEdgeStyle;rounded=0;orthogonalLoop=1;jettySize=auto;html=1;entryX=0.5;entryY=0;entryDx=0;entryDy=0;fontFamily=Helvetica;fontSize=12;fontColor=default;" parent="1" source="dlKfZmpZwxfihRRVxZ_t-43" target="dlKfZmpZwxfihRRVxZ_t-33" edge="1">
          <mxGeometry relative="1" as="geometry">
            <Array as="points">
              <mxPoint x="890" y="200" />
              <mxPoint x="890" y="200" />
            </Array>
          </mxGeometry>
        </mxCell>
        <mxCell id="dlKfZmpZwxfihRRVxZ_t-43" value="topic" style="whiteSpace=wrap;html=1;fontSize=8;fontFamily=Verdana;rounded=0;shadow=1;labelBackgroundColor=none;strokeWidth=1;" parent="1" vertex="1">
          <mxGeometry x="830" y="-160" width="120" height="60" as="geometry" />
        </mxCell>
        <mxCell id="dlKfZmpZwxfihRRVxZ_t-70" value="" style="edgeStyle=orthogonalEdgeStyle;rounded=0;orthogonalLoop=1;jettySize=auto;html=1;fontFamily=Helvetica;fontSize=12;fontColor=default;" parent="1" source="dlKfZmpZwxfihRRVxZ_t-45" target="dlKfZmpZwxfihRRVxZ_t-69" edge="1">
          <mxGeometry relative="1" as="geometry" />
        </mxCell>
        <mxCell id="dlKfZmpZwxfihRRVxZ_t-45" value="image" style="whiteSpace=wrap;html=1;fontSize=8;fontFamily=Verdana;rounded=0;shadow=1;labelBackgroundColor=none;strokeWidth=1;" parent="1" vertex="1">
          <mxGeometry x="240" y="-160" width="120" height="60" as="geometry" />
        </mxCell>
        <mxCell id="dlKfZmpZwxfihRRVxZ_t-68" value="" style="edgeStyle=orthogonalEdgeStyle;rounded=0;orthogonalLoop=1;jettySize=auto;html=1;fontFamily=Helvetica;fontSize=12;fontColor=default;" parent="1" source="dlKfZmpZwxfihRRVxZ_t-47" target="dlKfZmpZwxfihRRVxZ_t-67" edge="1">
          <mxGeometry relative="1" as="geometry" />
        </mxCell>
        <mxCell id="dlKfZmpZwxfihRRVxZ_t-47" value="text" style="whiteSpace=wrap;html=1;fontSize=8;fontFamily=Verdana;rounded=0;shadow=1;labelBackgroundColor=none;strokeWidth=1;" parent="1" vertex="1">
          <mxGeometry x="560" y="-160" width="120" height="60" as="geometry" />
        </mxCell>
        <mxCell id="dlKfZmpZwxfihRRVxZ_t-75" value="" style="edgeStyle=orthogonalEdgeStyle;rounded=0;orthogonalLoop=1;jettySize=auto;html=1;fontFamily=Helvetica;fontSize=12;fontColor=default;" parent="1" source="dlKfZmpZwxfihRRVxZ_t-52" target="dlKfZmpZwxfihRRVxZ_t-74" edge="1">
          <mxGeometry relative="1" as="geometry" />
        </mxCell>
        <mxCell id="dlKfZmpZwxfihRRVxZ_t-52" value="&lt;div data-docx-has-block-data=&quot;false&quot; data-lark-html-role=&quot;root&quot; data-page-id=&quot;ZrZfdG4iUosLCQxJwqncUnoCnMg&quot;&gt;&lt;div class=&quot;old-record-id-KnYQdzspHonp4exBsKVcN4GEnqg&quot;&gt;material&lt;/div&gt;&lt;/div&gt;&lt;span class=&quot;lark-record-clipboard&quot; data-lark-record-format=&quot;docx/text&quot; data-lark-record-data=&quot;{&amp;quot;rootId&amp;quot;:&amp;quot;ZrZfdG4iUosLCQxJwqncUnoCnMg&amp;quot;,&amp;quot;text&amp;quot;:{&amp;quot;initialAttributedTexts&amp;quot;:{&amp;quot;text&amp;quot;:{&amp;quot;0&amp;quot;:&amp;quot;gen_ques_with_material_ans&amp;quot;},&amp;quot;attribs&amp;quot;:{&amp;quot;0&amp;quot;:&amp;quot;*0+q&amp;quot;}},&amp;quot;apool&amp;quot;:{&amp;quot;numToAttrib&amp;quot;:{&amp;quot;0&amp;quot;:[&amp;quot;author&amp;quot;,&amp;quot;7475538696675049474&amp;quot;]},&amp;quot;nextNum&amp;quot;:1}},&amp;quot;type&amp;quot;:&amp;quot;text&amp;quot;,&amp;quot;referenceRecordMap&amp;quot;:{},&amp;quot;extra&amp;quot;:{&amp;quot;channel&amp;quot;:&amp;quot;saas&amp;quot;,&amp;quot;isEqualBlockSelection&amp;quot;:false,&amp;quot;pasteRandomId&amp;quot;:&amp;quot;9a4c456c-1ecb-4a9f-a6eb-202fbe3dfb33&amp;quot;,&amp;quot;mention_page_title&amp;quot;:{},&amp;quot;external_mention_url&amp;quot;:{}},&amp;quot;isKeepQuoteContainer&amp;quot;:false,&amp;quot;isFromCode&amp;quot;:false,&amp;quot;selection&amp;quot;:[{&amp;quot;id&amp;quot;:126,&amp;quot;type&amp;quot;:&amp;quot;text&amp;quot;,&amp;quot;selection&amp;quot;:{&amp;quot;start&amp;quot;:0,&amp;quot;end&amp;quot;:26},&amp;quot;recordId&amp;quot;:&amp;quot;KnYQdzspHonp4exBsKVcN4GEnqg&amp;quot;}],&amp;quot;payloadMap&amp;quot;:{},&amp;quot;isCut&amp;quot;:false}&quot;&gt;&lt;/span&gt;" style="whiteSpace=wrap;html=1;fontSize=8;fontFamily=Verdana;rounded=0;shadow=1;labelBackgroundColor=none;strokeWidth=1;" parent="1" vertex="1">
          <mxGeometry y="-160" width="120" height="60" as="geometry" />
        </mxCell>
        <mxCell id="dlKfZmpZwxfihRRVxZ_t-72" style="edgeStyle=orthogonalEdgeStyle;rounded=0;orthogonalLoop=1;jettySize=auto;html=1;fontFamily=Helvetica;fontSize=12;fontColor=default;" parent="1" source="dlKfZmpZwxfihRRVxZ_t-67" edge="1">
          <mxGeometry relative="1" as="geometry">
            <mxPoint x="470" y="170" as="targetPoint" />
          </mxGeometry>
        </mxCell>
        <mxCell id="dlKfZmpZwxfihRRVxZ_t-67" value="SSE" style="whiteSpace=wrap;html=1;fontSize=8;fontFamily=Verdana;rounded=0;shadow=1;labelBackgroundColor=none;strokeWidth=1;" parent="1" vertex="1">
          <mxGeometry x="560" y="-20" width="120" height="60" as="geometry" />
        </mxCell>
        <mxCell id="dlKfZmpZwxfihRRVxZ_t-71" style="edgeStyle=orthogonalEdgeStyle;rounded=0;orthogonalLoop=1;jettySize=auto;html=1;entryX=0.5;entryY=0;entryDx=0;entryDy=0;fontFamily=Helvetica;fontSize=12;fontColor=default;" parent="1" source="dlKfZmpZwxfihRRVxZ_t-69" target="dlKfZmpZwxfihRRVxZ_t-5" edge="1">
          <mxGeometry relative="1" as="geometry">
            <Array as="points">
              <mxPoint x="470" y="10" />
            </Array>
          </mxGeometry>
        </mxCell>
        <mxCell id="dlKfZmpZwxfihRRVxZ_t-69" value="OCR" style="whiteSpace=wrap;html=1;fontSize=8;fontFamily=Verdana;rounded=0;shadow=1;labelBackgroundColor=none;strokeWidth=1;" parent="1" vertex="1">
          <mxGeometry x="240" y="-20" width="120" height="60" as="geometry" />
        </mxCell>
        <mxCell id="dlKfZmpZwxfihRRVxZ_t-74" value="根据素材出题gen_ques_with_&lt;span style=&quot;background-color: transparent; color: light-dark(rgb(0, 0, 0), rgb(255, 255, 255));&quot;&gt;material_ans&lt;/span&gt;" style="whiteSpace=wrap;html=1;fontSize=8;fontFamily=Verdana;rounded=0;shadow=1;labelBackgroundColor=none;strokeWidth=1;" parent="1" vertex="1">
          <mxGeometry x="-20" y="-20" width="160" height="60" as="geometry" />
        </mxCell>
        <mxCell id="dlKfZmpZwxfihRRVxZ_t-87" value="" style="edgeStyle=orthogonalEdgeStyle;rounded=0;orthogonalLoop=1;jettySize=auto;html=1;fontFamily=Helvetica;fontSize=12;fontColor=default;" parent="1" source="dlKfZmpZwxfihRRVxZ_t-79" target="dlKfZmpZwxfihRRVxZ_t-86" edge="1">
          <mxGeometry relative="1" as="geometry" />
        </mxCell>
        <mxCell id="dlKfZmpZwxfihRRVxZ_t-79" value="没思路" style="whiteSpace=wrap;html=1;fontSize=8;fontFamily=Verdana;rounded=0;shadow=1;labelBackgroundColor=none;strokeWidth=1;" parent="1" vertex="1">
          <mxGeometry x="830" y="450" width="120" height="60" as="geometry" />
        </mxCell>
        <mxCell id="dlKfZmpZwxfihRRVxZ_t-134" value="" style="edgeStyle=orthogonalEdgeStyle;rounded=0;orthogonalLoop=1;jettySize=auto;html=1;fontFamily=Helvetica;fontSize=12;fontColor=default;" parent="1" source="dlKfZmpZwxfihRRVxZ_t-81" target="dlKfZmpZwxfihRRVxZ_t-133" edge="1">
          <mxGeometry relative="1" as="geometry" />
        </mxCell>
        <mxCell id="dlKfZmpZwxfihRRVxZ_t-81" value="有思路" style="whiteSpace=wrap;html=1;fontSize=8;fontFamily=Verdana;rounded=0;shadow=1;labelBackgroundColor=none;strokeWidth=1;" parent="1" vertex="1">
          <mxGeometry x="990" y="590" width="120" height="60" as="geometry" />
        </mxCell>
        <mxCell id="dlKfZmpZwxfihRRVxZ_t-88" style="edgeStyle=orthogonalEdgeStyle;rounded=0;orthogonalLoop=1;jettySize=auto;html=1;entryX=0;entryY=0.5;entryDx=0;entryDy=0;fontFamily=Helvetica;fontSize=12;fontColor=default;" parent="1" source="dlKfZmpZwxfihRRVxZ_t-86" target="dlKfZmpZwxfihRRVxZ_t-81" edge="1">
          <mxGeometry relative="1" as="geometry" />
        </mxCell>
        <mxCell id="dlKfZmpZwxfihRRVxZ_t-90" value="" style="edgeStyle=orthogonalEdgeStyle;rounded=0;orthogonalLoop=1;jettySize=auto;html=1;fontFamily=Helvetica;fontSize=12;fontColor=default;" parent="1" source="dlKfZmpZwxfihRRVxZ_t-86" target="dlKfZmpZwxfihRRVxZ_t-89" edge="1">
          <mxGeometry relative="1" as="geometry" />
        </mxCell>
        <mxCell id="dlKfZmpZwxfihRRVxZ_t-86" value="分析问题" style="whiteSpace=wrap;html=1;fontSize=8;fontFamily=Verdana;rounded=0;shadow=1;labelBackgroundColor=none;strokeWidth=1;" parent="1" vertex="1">
          <mxGeometry x="830" y="590" width="120" height="60" as="geometry" />
        </mxCell>
        <mxCell id="dlKfZmpZwxfihRRVxZ_t-92" value="" style="edgeStyle=orthogonalEdgeStyle;rounded=0;orthogonalLoop=1;jettySize=auto;html=1;fontFamily=Helvetica;fontSize=12;fontColor=default;" parent="1" source="dlKfZmpZwxfihRRVxZ_t-89" target="dlKfZmpZwxfihRRVxZ_t-91" edge="1">
          <mxGeometry relative="1" as="geometry" />
        </mxCell>
        <mxCell id="dlKfZmpZwxfihRRVxZ_t-89" value="没思路" style="whiteSpace=wrap;html=1;fontSize=8;fontFamily=Verdana;rounded=0;shadow=1;labelBackgroundColor=none;strokeWidth=1;" parent="1" vertex="1">
          <mxGeometry x="830" y="730" width="120" height="60" as="geometry" />
        </mxCell>
        <mxCell id="dlKfZmpZwxfihRRVxZ_t-106" style="edgeStyle=orthogonalEdgeStyle;rounded=0;orthogonalLoop=1;jettySize=auto;html=1;fontFamily=Helvetica;fontSize=12;fontColor=default;" parent="1" source="dlKfZmpZwxfihRRVxZ_t-102" target="dlKfZmpZwxfihRRVxZ_t-104" edge="1">
          <mxGeometry relative="1" as="geometry">
            <Array as="points">
              <mxPoint x="450" y="970" />
              <mxPoint x="450" y="970" />
            </Array>
          </mxGeometry>
        </mxCell>
        <mxCell id="dlKfZmpZwxfihRRVxZ_t-140" style="edgeStyle=orthogonalEdgeStyle;rounded=0;orthogonalLoop=1;jettySize=auto;html=1;fontFamily=Helvetica;fontSize=12;fontColor=default;" parent="1" source="dlKfZmpZwxfihRRVxZ_t-91" target="dlKfZmpZwxfihRRVxZ_t-104" edge="1">
          <mxGeometry relative="1" as="geometry">
            <Array as="points">
              <mxPoint x="740" y="910" />
              <mxPoint x="450" y="910" />
            </Array>
          </mxGeometry>
        </mxCell>
        <mxCell id="dlKfZmpZwxfihRRVxZ_t-91" value="生成范文&lt;div&gt;gen_ans&lt;/div&gt;" style="whiteSpace=wrap;html=1;fontSize=8;fontFamily=Verdana;rounded=0;shadow=1;labelBackgroundColor=none;strokeWidth=1;" parent="1" vertex="1">
          <mxGeometry x="680" y="730" width="120" height="60" as="geometry" />
        </mxCell>
        <mxCell id="dlKfZmpZwxfihRRVxZ_t-103" value="" style="edgeStyle=orthogonalEdgeStyle;rounded=0;orthogonalLoop=1;jettySize=auto;html=1;fontFamily=Helvetica;fontSize=12;fontColor=default;" parent="1" source="dlKfZmpZwxfihRRVxZ_t-99" target="dlKfZmpZwxfihRRVxZ_t-102" edge="1">
          <mxGeometry relative="1" as="geometry">
            <Array as="points">
              <mxPoint x="600" y="760" />
            </Array>
          </mxGeometry>
        </mxCell>
        <mxCell id="dlKfZmpZwxfihRRVxZ_t-99" value="评估答案" style="whiteSpace=wrap;html=1;fontSize=8;fontFamily=Verdana;rounded=0;shadow=1;labelBackgroundColor=none;strokeWidth=1;" parent="1" vertex="1">
          <mxGeometry x="540" y="590" width="120" height="60" as="geometry" />
        </mxCell>
        <mxCell id="dlKfZmpZwxfihRRVxZ_t-104" value="" style="ellipse;whiteSpace=wrap;html=1;align=left;verticalAlign=top;fontFamily=Helvetica;fontSize=12;fontColor=default;fillColor=none;gradientColor=none;" parent="1" vertex="1">
          <mxGeometry x="390" y="1010" width="120" height="80" as="geometry" />
        </mxCell>
        <mxCell id="dlKfZmpZwxfihRRVxZ_t-105" value="结束" style="text;html=1;align=center;verticalAlign=middle;resizable=0;points=[];autosize=1;strokeColor=none;fillColor=none;fontFamily=Helvetica;fontSize=22;fontColor=default;" parent="1" vertex="1">
          <mxGeometry x="415" y="1030" width="70" height="40" as="geometry" />
        </mxCell>
        <mxCell id="dlKfZmpZwxfihRRVxZ_t-116" value="" style="edgeStyle=orthogonalEdgeStyle;rounded=0;orthogonalLoop=1;jettySize=auto;html=1;fontFamily=Helvetica;fontSize=12;fontColor=default;" parent="1" source="dlKfZmpZwxfihRRVxZ_t-113" target="dlKfZmpZwxfihRRVxZ_t-115" edge="1">
          <mxGeometry relative="1" as="geometry" />
        </mxCell>
        <mxCell id="dlKfZmpZwxfihRRVxZ_t-118" value="" style="edgeStyle=orthogonalEdgeStyle;rounded=0;orthogonalLoop=1;jettySize=auto;html=1;fontFamily=Helvetica;fontSize=12;fontColor=default;" parent="1" source="dlKfZmpZwxfihRRVxZ_t-113" target="dlKfZmpZwxfihRRVxZ_t-117" edge="1">
          <mxGeometry relative="1" as="geometry" />
        </mxCell>
        <mxCell id="dlKfZmpZwxfihRRVxZ_t-113" value="有问题" style="rhombus;whiteSpace=wrap;html=1;fontSize=8;fontFamily=Verdana;rounded=0;shadow=1;labelBackgroundColor=none;strokeWidth=1;" parent="1" vertex="1">
          <mxGeometry x="290" y="440" width="140" height="80" as="geometry" />
        </mxCell>
        <mxCell id="dlKfZmpZwxfihRRVxZ_t-126" value="" style="edgeStyle=orthogonalEdgeStyle;rounded=0;orthogonalLoop=1;jettySize=auto;html=1;fontFamily=Helvetica;fontSize=12;fontColor=default;" parent="1" source="dlKfZmpZwxfihRRVxZ_t-115" target="dlKfZmpZwxfihRRVxZ_t-102" edge="1">
          <mxGeometry relative="1" as="geometry">
            <Array as="points">
              <mxPoint x="270" y="760" />
            </Array>
          </mxGeometry>
        </mxCell>
        <mxCell id="dlKfZmpZwxfihRRVxZ_t-115" value="确认大纲" style="whiteSpace=wrap;html=1;fontSize=8;fontFamily=Verdana;rounded=0;shadow=1;labelBackgroundColor=none;strokeWidth=1;" parent="1" vertex="1">
          <mxGeometry x="210" y="590" width="120" height="60" as="geometry" />
        </mxCell>
        <mxCell id="dlKfZmpZwxfihRRVxZ_t-117" value="提供问题" style="whiteSpace=wrap;html=1;fontSize=8;fontFamily=Verdana;rounded=0;shadow=1;labelBackgroundColor=none;strokeWidth=1;" parent="1" vertex="1">
          <mxGeometry x="390" y="590" width="120" height="60" as="geometry" />
        </mxCell>
        <mxCell id="dlKfZmpZwxfihRRVxZ_t-119" value="N" style="text;html=1;align=center;verticalAlign=middle;resizable=0;points=[];autosize=1;strokeColor=none;fillColor=none;fontFamily=Helvetica;fontSize=12;fontColor=default;" parent="1" vertex="1">
          <mxGeometry x="390" y="528" width="30" height="30" as="geometry" />
        </mxCell>
        <mxCell id="dlKfZmpZwxfihRRVxZ_t-120" value="Y" style="text;html=1;align=center;verticalAlign=middle;resizable=0;points=[];autosize=1;strokeColor=none;fillColor=none;fontFamily=Helvetica;fontSize=12;fontColor=default;" parent="1" vertex="1">
          <mxGeometry x="300" y="528" width="30" height="30" as="geometry" />
        </mxCell>
        <mxCell id="dlKfZmpZwxfihRRVxZ_t-102" value="生成答案评估" style="whiteSpace=wrap;html=1;fontSize=8;fontFamily=Verdana;rounded=0;shadow=1;labelBackgroundColor=none;strokeWidth=1;" parent="1" vertex="1">
          <mxGeometry x="390" y="730" width="120" height="60" as="geometry" />
        </mxCell>
        <mxCell id="dlKfZmpZwxfihRRVxZ_t-131" value="" style="ellipse;whiteSpace=wrap;html=1;align=left;verticalAlign=top;fontFamily=Helvetica;fontSize=12;fontColor=default;fillColor=none;gradientColor=none;" parent="1" vertex="1">
          <mxGeometry x="410" y="-420" width="120" height="80" as="geometry" />
        </mxCell>
        <mxCell id="dlKfZmpZwxfihRRVxZ_t-132" value="开始" style="text;html=1;align=center;verticalAlign=middle;resizable=0;points=[];autosize=1;strokeColor=none;fillColor=none;fontFamily=Helvetica;fontSize=22;fontColor=default;" parent="1" vertex="1">
          <mxGeometry x="435" y="-400" width="70" height="40" as="geometry" />
        </mxCell>
        <mxCell id="dlKfZmpZwxfihRRVxZ_t-136" value="" style="edgeStyle=orthogonalEdgeStyle;rounded=0;orthogonalLoop=1;jettySize=auto;html=1;fontFamily=Helvetica;fontSize=12;fontColor=default;" parent="1" source="dlKfZmpZwxfihRRVxZ_t-133" target="dlKfZmpZwxfihRRVxZ_t-135" edge="1">
          <mxGeometry relative="1" as="geometry" />
        </mxCell>
        <mxCell id="dlKfZmpZwxfihRRVxZ_t-133" value="确认大纲" style="whiteSpace=wrap;html=1;fontSize=8;fontFamily=Verdana;rounded=0;shadow=1;labelBackgroundColor=none;strokeWidth=1;" parent="1" vertex="1">
          <mxGeometry x="990" y="730" width="120" height="60" as="geometry" />
        </mxCell>
        <mxCell id="dlKfZmpZwxfihRRVxZ_t-137" style="edgeStyle=orthogonalEdgeStyle;rounded=0;orthogonalLoop=1;jettySize=auto;html=1;fontFamily=Helvetica;fontSize=12;fontColor=default;" parent="1" source="dlKfZmpZwxfihRRVxZ_t-135" edge="1">
          <mxGeometry relative="1" as="geometry">
            <mxPoint x="740" y="910" as="targetPoint" />
          </mxGeometry>
        </mxCell>
        <mxCell id="dlKfZmpZwxfihRRVxZ_t-135" value="答案评估" style="whiteSpace=wrap;html=1;fontSize=8;fontFamily=Verdana;rounded=0;shadow=1;labelBackgroundColor=none;strokeWidth=1;" parent="1" vertex="1">
          <mxGeometry x="990" y="880" width="120" height="60" as="geometry" />
        </mxCell>
        <mxCell id="dlKfZmpZwxfihRRVxZ_t-138" style="edgeStyle=orthogonalEdgeStyle;rounded=0;orthogonalLoop=1;jettySize=auto;html=1;entryX=0.5;entryY=0;entryDx=0;entryDy=0;fontFamily=Helvetica;fontSize=12;fontColor=default;" parent="1" source="dlKfZmpZwxfihRRVxZ_t-117" target="dlKfZmpZwxfihRRVxZ_t-102" edge="1">
          <mxGeometry relative="1" as="geometry" />
        </mxCell>
      </root>
    </mxGraphModel>
  </diagram>
</mxfile>
